<svg width="65" height="65" viewBox="0 0 65 65" fill="none" xmlns="http://www.w3.org/2000/svg">
<g clip-path="url(#clip0_26_489)">
<path d="M58.1724 16.3424C58.2117 17.0338 58.2117 17.7253 58.2117 18.423C58.2117 39.6851 44.8972 64.2066 20.551 64.2066V64.1939C13.3591 64.2066 6.31652 61.7022 0.262085 56.9802C1.30785 57.1331 2.35886 57.2096 3.41249 57.2128C9.37257 57.2191 15.1623 54.788 19.8512 50.3113C14.1873 50.1806 9.22055 45.6912 7.48547 39.137C9.46955 39.6022 11.5139 39.5066 13.4613 38.8598C7.28628 37.3431 2.84374 30.7476 2.84374 23.0878C2.84374 23.0177 2.84374 22.9507 2.84374 22.8838C4.68366 24.1297 6.74374 24.8211 8.851 24.8976C3.03507 20.1723 1.24233 10.7664 4.75442 3.41251C11.4746 13.4652 21.3897 19.5765 32.0335 20.2233C30.9667 14.6346 32.424 8.77819 35.8627 4.84952C41.1937 -1.24264 49.5782 -0.930385 54.5895 5.54731C57.5538 4.83677 60.395 3.51447 62.995 1.64094C62.0068 5.36569 59.9389 8.52966 57.1764 10.5402C59.8 10.1642 62.3633 9.3103 64.7772 8.00711C63.0002 11.2444 60.7619 14.0642 58.1724 16.3424Z" fill="#1D9BF0"/>
</g>
<defs>
<clipPath id="clip0_26_489">
<rect width="65" height="65" fill="white"/>
</clipPath>
</defs>
</svg>
