<?xml version="1.0" encoding="UTF-8"?>
<svg id="Layer_2" data-name="Layer 2" xmlns="http://www.w3.org/2000/svg" viewBox="0 0 287.03 138.05">
  <g id="Logo">
    <g id="Chasses_Epi_Vecto">
      <path d="m6.05,44.16c-2.38-.94-4.02-2.21-4.92-3.81-.9-1.6-1.26-3.39-1.08-5.36.18-1.97.8-4.08,1.88-6.33,1.07-2.25,2.4-4.5,3.98-6.77,1.58-2.27,3.33-4.47,5.24-6.62,1.91-2.15,3.81-4.12,5.68-5.92,1.88-1.8,3.63-3.36,5.27-4.69,1.64-1.33,2.97-2.3,3.98-2.93,1.41-.86,2.58-1.28,3.52-1.26.94.02,1.69.31,2.26.88.57.57.96,1.35,1.17,2.34.21,1,.31,2.05.29,3.16-.02,1.11-.14,2.23-.35,3.34-.22,1.11-.49,2.08-.82,2.9-.33.82-.68,1.43-1.05,1.82-.37.39-.73.41-1.08.06-.04-.31,0-.79.12-1.44s.26-1.38.44-2.2.34-1.66.5-2.52c.16-.86.26-1.65.32-2.37.06-.72.04-1.34-.06-1.85-.1-.51-.32-.8-.67-.88-1.37-.35-3-.03-4.89.97-1.9,1-3.87,2.42-5.92,4.28-2.05,1.86-4.08,4-6.09,6.45-2.01,2.44-3.84,4.95-5.48,7.53s-2.99,5.09-4.04,7.53c-1.05,2.44-1.65,4.59-1.79,6.45-.14,1.86.27,3.28,1.23,4.28.96,1,2.65,1.32,5.07.97,2.23-.31,4.29-1.1,6.18-2.37,1.89-1.27,3.73-2.68,5.51-4.22,1.78-1.54,3.54-3.07,5.3-4.57,1.76-1.5,3.59-2.65,5.51-3.43.7-.27,1.26-.18,1.67.29s.52,1.04.32,1.7c-.23.66-.93,1.54-2.08,2.64-1.15,1.09-2.58,2.24-4.28,3.43-1.7,1.19-3.56,2.38-5.6,3.57-2.03,1.19-4.01,2.22-5.95,3.08-1.93.86-3.73,1.48-5.39,1.88-1.66.39-2.96.39-3.9,0Z"/>
      <path d="m37.51,43.46c-.04-.08-.06-.19-.06-.32s.02-.24.06-.32c.16-.31.42-.85.79-1.61.37-.76.76-1.56,1.17-2.4.41-.84.81-1.63,1.2-2.37.39-.74.66-1.27.82-1.58.08-.12.28-.45.62-1,.33-.55.74-1.22,1.23-2.02.49-.8,1.02-1.69,1.58-2.67.57-.98,1.13-1.93,1.7-2.87.57-.94,1.09-1.82,1.58-2.64.49-.82.89-1.5,1.2-2.05.78-1.29,1.69-2.81,2.72-4.57,1.03-1.76,2.1-3.53,3.19-5.33,1.09-1.8,2.18-3.53,3.25-5.21,1.07-1.68,2.06-3.07,2.96-4.16.9-1.09,1.66-1.82,2.29-2.17.62-.35,1.05-.12,1.29.7v1.88c-.27.43-.64.99-1.11,1.67-.47.68-.95,1.41-1.44,2.17-.49.76-.97,1.49-1.44,2.2s-.82,1.25-1.05,1.64c-.35.55-.92,1.43-1.7,2.64-.78,1.21-1.66,2.58-2.64,4.1-.98,1.52-1.97,3.12-2.99,4.78-1.02,1.66-1.93,3.21-2.75,4.66-.82,1.45-1.48,2.69-1.96,3.72-.49,1.04-.67,1.69-.56,1.96.94-.27,1.94-.77,3.02-1.49,1.07-.72,2.16-1.49,3.25-2.31,1.09-.82,2.19-1.61,3.28-2.37,1.09-.76,2.11-1.36,3.05-1.79.94.12,1.76.47,2.46,1.05s1.21,1.33,1.52,2.23c-.04.35-.07,1.01-.09,1.96-.02.96-.03,1.96-.03,3.02s0,2.05.03,2.99c.02.94.05,1.58.09,1.93.04.43.23.97.59,1.61s.73,1.29,1.14,1.93.78,1.2,1.11,1.67c.33.47.48.72.44.76-.78.27-1.52.28-2.23.03-.7-.25-1.32-.66-1.85-1.23-.53-.57-.96-1.21-1.29-1.93-.33-.72-.54-1.44-.62-2.14-.04-.35-.1-1.01-.18-1.96-.08-.96-.15-1.96-.21-3.02s-.12-2.05-.18-2.99-.09-1.58-.09-1.93l-1.35-.7c-.23-.12-.64-.02-1.2.29-.57.31-1.22.74-1.96,1.29-.74.55-1.52,1.17-2.34,1.88s-1.59,1.37-2.31,1.99c-.72.63-1.34,1.17-1.85,1.64-.51.47-.82.76-.94.88-.31.31-.88.87-1.7,1.67-.82.8-1.69,1.66-2.61,2.58s-1.78,1.79-2.58,2.61c-.8.82-1.36,1.41-1.67,1.76-.55.12-1.06.17-1.55.15-.49-.02-.87-.3-1.14-.85Z"/>
      <path d="m72.67,43.46c-.94-.78-1.46-1.93-1.55-3.46-.1-1.52.12-3.24.64-5.16.53-1.91,1.31-3.92,2.34-6.01,1.03-2.09,2.24-4.08,3.6-5.98,1.37-1.89,2.85-3.59,4.45-5.1,1.6-1.5,3.2-2.62,4.8-3.34,1.6-.72,3.16-.98,4.69-.76,1.52.22,2.91,1.1,4.16,2.67.78.98,1.25,1.96,1.41,2.96.16,1,.14,2.01-.06,3.05-.2,1.04-.51,2.09-.94,3.16-.43,1.07-.85,2.16-1.26,3.25-.41,1.09-.74,2.21-1,3.34-.25,1.13-.3,2.29-.15,3.46.19,1.48.86,2.36,1.99,2.64,1.13.27,2.49.2,4.07-.23,1.58-.43,3.25-1.11,5.01-2.05s3.39-1.88,4.89-2.81c1.5-.94,3.25-2.11,5.24-3.52,1.09-.23,1.71-.17,1.85.21.14.37-.08.92-.64,1.64-.57.72-1.42,1.54-2.55,2.46-1.13.92-2.42,1.81-3.87,2.67-1.45.86-2.99,1.64-4.63,2.34s-3.24,1.18-4.8,1.44c-1.56.25-3.04.23-4.42-.06-1.39-.29-2.53-.99-3.43-2.08-.43-.47-.75-.94-.97-1.41-.22-.47-.56-.88-1.03-1.23-.59.55-1.29,1.26-2.11,2.14s-1.71,1.76-2.67,2.64c-.96.88-1.97,1.71-3.05,2.49-1.07.78-2.18,1.37-3.31,1.76-1.13.39-2.28.53-3.43.41-1.15-.12-2.26-.62-3.31-1.52Zm.64-1.99c.35,1.25,1.13,1.83,2.34,1.73,1.21-.1,2.62-.69,4.22-1.79,1.6-1.09,3.26-2.59,4.98-4.48,1.72-1.89,3.26-4,4.63-6.33,1.37-2.32,2.41-4.78,3.13-7.35.72-2.58.91-5.12.56-7.62-.94-.74-2.11-.77-3.52-.09-1.41.68-2.9,1.8-4.48,3.34-1.58,1.54-3.15,3.38-4.69,5.51-1.54,2.13-2.9,4.28-4.07,6.45s-2.06,4.21-2.67,6.12c-.61,1.91-.75,3.42-.44,4.51Z"/>
      <path d="m112.16,44.16c-.47-.31-.48-.73-.03-1.26.45-.53,1.17-1.09,2.17-1.7,1-.6,2.16-1.24,3.49-1.9,1.33-.66,2.61-1.29,3.84-1.88s2.31-1.1,3.25-1.55c.94-.45,1.54-.79,1.82-1.03,1.29-1.09,1.96-2,2.02-2.72.06-.72-.26-1.31-.97-1.76-.7-.45-1.69-.8-2.96-1.05-1.27-.25-2.58-.49-3.93-.7-1.35-.21-2.64-.44-3.87-.67s-2.16-.55-2.78-.94c-.63-.39-.83-.91-.62-1.55.21-.64,1.06-1.47,2.55-2.49.55-.39,1.35-.96,2.4-1.7,1.05-.74,2.2-1.5,3.43-2.29,1.23-.78,2.45-1.48,3.66-2.11,1.21-.62,2.23-1.03,3.05-1.23.43-.08.87-.04,1.32.12.45.16.81.38,1.08.67.27.29.4.62.38.97-.02.35-.28.66-.79.94-2.23,1.25-4.37,2.42-6.42,3.52-2.05,1.09-4.11,2.34-6.18,3.75-.12.31-.09.59.09.82s.38.41.62.53c4.14.43,7.26,1.04,9.35,1.82,2.09.78,3.42,1.64,3.98,2.58.57.94.5,1.93-.21,2.99s-1.75,2.09-3.13,3.11c-1.39,1.02-2.98,1.97-4.78,2.87-1.8.9-3.53,1.66-5.19,2.29-1.66.63-3.12,1.09-4.37,1.41-1.25.31-2.01.37-2.29.18Z"/>
      <path d="m135.37,44.16c-.47-.31-.48-.73-.03-1.26.45-.53,1.17-1.09,2.17-1.7,1-.6,2.16-1.24,3.49-1.9,1.33-.66,2.61-1.29,3.84-1.88s2.31-1.1,3.25-1.55c.94-.45,1.54-.79,1.82-1.03,1.29-1.09,1.96-2,2.02-2.72.06-.72-.26-1.31-.97-1.76-.7-.45-1.69-.8-2.96-1.05-1.27-.25-2.58-.49-3.93-.7-1.35-.21-2.64-.44-3.87-.67s-2.16-.55-2.78-.94c-.63-.39-.83-.91-.62-1.55.21-.64,1.06-1.47,2.55-2.49.55-.39,1.35-.96,2.4-1.7,1.05-.74,2.2-1.5,3.43-2.29,1.23-.78,2.45-1.48,3.66-2.11,1.21-.62,2.23-1.03,3.05-1.23.43-.08.87-.04,1.32.12.45.16.81.38,1.08.67.27.29.4.62.38.97-.02.35-.28.66-.79.94-2.23,1.25-4.37,2.42-6.42,3.52-2.05,1.09-4.11,2.34-6.18,3.75-.12.31-.09.59.09.82s.38.41.62.53c4.14.43,7.26,1.04,9.35,1.82,2.09.78,3.42,1.64,3.98,2.58.57.94.5,1.93-.21,2.99s-1.75,2.09-3.13,3.11c-1.39,1.02-2.98,1.97-4.78,2.87-1.8.9-3.53,1.66-5.19,2.29-1.66.63-3.12,1.09-4.37,1.41-1.25.31-2.01.37-2.29.18Z"/>
      <path d="m161.85,44.16c-1.17-.39-2.06-.99-2.67-1.79-.61-.8-1.01-1.69-1.2-2.67-.2-.98-.23-2-.09-3.08.14-1.07.36-2.1.67-3.08,1.17-1.25,2.49-2.69,3.96-4.31,1.46-1.62,3.02-3.21,4.66-4.78,1.64-1.56,3.35-3.02,5.13-4.37,1.78-1.35,3.58-2.37,5.42-3.08.62-.27,1.12-.26,1.49.03.37.29.63.75.79,1.38.16.63.22,1.35.21,2.17-.02.82-.09,1.62-.21,2.4-.12.78-.27,1.48-.47,2.11-.2.63-.39,1.05-.59,1.29-.47.55-1.38,1.19-2.72,1.93-1.35.74-2.84,1.55-4.48,2.43s-3.28,1.79-4.92,2.72-2.99,1.87-4.04,2.78c-1.05.92-1.68,1.83-1.88,2.72-.2.9.35,1.72,1.64,2.46,1.33.16,2.94.09,4.83-.21,1.89-.29,3.83-.68,5.8-1.17,1.97-.49,3.88-1,5.71-1.52,1.84-.53,3.34-.95,4.51-1.26l.7.64c-.86,1.13-2.27,2.17-4.22,3.11-1.95.94-4.06,1.71-6.33,2.31-2.27.61-4.47,1-6.62,1.17-2.15.18-3.85.05-5.1-.38Zm14-22.38s-.33.13-.88.5c-.55.37-1.22.86-2.02,1.46-.8.61-1.66,1.27-2.58,1.99-.92.72-1.76,1.4-2.52,2.02-.76.63-1.4,1.16-1.9,1.61-.51.45-.72.67-.64.67.62.12,1.44.03,2.43-.26s2.03-.71,3.11-1.26c1.07-.55,2.1-1.16,3.08-1.85.98-.68,1.75-1.36,2.31-2.02.57-.66.86-1.25.88-1.76.02-.51-.4-.88-1.26-1.11Z"/>
      <path d="m217.22,43.46c-.94-.78-1.46-1.93-1.55-3.46-.1-1.52.12-3.24.64-5.16.53-1.91,1.31-3.92,2.34-6.01,1.03-2.09,2.24-4.08,3.6-5.98,1.37-1.89,2.85-3.59,4.45-5.1,1.6-1.5,3.2-2.62,4.8-3.34,1.6-.72,3.16-.98,4.69-.76,1.52.22,2.91,1.1,4.16,2.67.78.98,1.25,1.96,1.41,2.96s.14,2.01-.06,3.05c-.2,1.04-.51,2.09-.94,3.16-.43,1.07-.85,2.16-1.26,3.25-.41,1.09-.74,2.21-1,3.34-.25,1.13-.3,2.29-.15,3.46.2,1.48.86,2.36,1.99,2.64,1.13.27,2.49.2,4.07-.23,1.58-.43,3.25-1.11,5.01-2.05s3.39-1.88,4.89-2.81,3.25-2.11,5.24-3.52c1.09-.23,1.71-.17,1.85.21.14.37-.08.92-.64,1.64-.57.72-1.42,1.54-2.55,2.46-1.13.92-2.42,1.81-3.87,2.67-1.45.86-2.99,1.64-4.63,2.34s-3.24,1.18-4.8,1.44c-1.56.25-3.04.23-4.42-.06s-2.53-.99-3.43-2.08c-.43-.47-.75-.94-.97-1.41s-.56-.88-1.03-1.23c-.59.55-1.29,1.26-2.11,2.14s-1.71,1.76-2.67,2.64-1.97,1.71-3.05,2.49c-1.07.78-2.18,1.37-3.31,1.76s-2.28.53-3.43.41c-1.15-.12-2.26-.62-3.31-1.52Zm.64-1.99c.35,1.25,1.13,1.83,2.34,1.73,1.21-.1,2.62-.69,4.22-1.79,1.6-1.09,3.26-2.59,4.98-4.48,1.72-1.89,3.26-4,4.63-6.33,1.37-2.32,2.41-4.78,3.13-7.35s.91-5.12.56-7.62c-.94-.74-2.11-.77-3.52-.09-1.41.68-2.9,1.8-4.48,3.34-1.58,1.54-3.14,3.38-4.69,5.51-1.54,2.13-2.9,4.28-4.07,6.45-1.17,2.17-2.06,4.21-2.67,6.12-.61,1.91-.75,3.42-.44,4.51Z"/>
      <path d="m280.21,44.16c-1.05-.43-1.89-1-2.52-1.7s-1.11-1.5-1.46-2.4c-.35-.9-.62-1.85-.82-2.84s-.37-2-.53-3.02c-.35-.23-.98,0-1.88.67-.9.68-1.93,1.53-3.11,2.55-1.17,1.02-2.43,2.06-3.78,3.13-1.35,1.07-2.65,1.87-3.9,2.37-1.25.51-2.39.61-3.43.29-1.04-.31-1.85-1.33-2.43-3.05-.2-.59-.13-1.44.21-2.55s.83-2.33,1.49-3.66c.66-1.33,1.44-2.7,2.31-4.13.88-1.43,1.74-2.75,2.58-3.98s1.62-2.29,2.34-3.16,1.28-1.45,1.67-1.73c.9.43,1.3,1.08,1.2,1.96s-.45,1.89-1.05,3.02c-.61,1.13-1.39,2.34-2.34,3.63s-1.86,2.57-2.7,3.84c-.84,1.27-1.51,2.49-2.02,3.66s-.64,2.21-.41,3.11c.86.35,1.92.17,3.19-.56,1.27-.72,2.64-1.73,4.1-3.02s2.97-2.76,4.51-4.42c1.54-1.66,2.98-3.26,4.31-4.8,1.33-1.54,2.5-2.9,3.52-4.07s1.76-1.95,2.23-2.34c.82.39,1.23,1.03,1.23,1.9s-.22,1.89-.67,3.02c-.45,1.13-1,2.35-1.64,3.66-.64,1.31-1.2,2.61-1.67,3.9s-.74,2.52-.82,3.69.23,2.19.94,3.05l1.99,2.34h5.92c.27,0,.33.12.18.35s-.38.49-.67.76c-.29.27-.6.54-.91.79-.31.25-.49.38-.53.38-1.02.19-1.84.22-2.46.09s-1.35-.38-2.17-.73Z"/>
      <path d="m4.76,116.16c-1.17-.39-2.06-.99-2.67-1.79-.61-.8-1.01-1.69-1.2-2.67-.2-.98-.23-2-.09-3.08.14-1.07.36-2.1.67-3.08,1.17-1.25,2.49-2.69,3.96-4.31,1.46-1.62,3.02-3.21,4.66-4.78,1.64-1.56,3.35-3.02,5.13-4.37,1.78-1.35,3.58-2.37,5.42-3.08.62-.27,1.12-.26,1.49.03.37.29.63.75.79,1.38.16.63.22,1.35.21,2.17-.02.82-.09,1.62-.21,2.4-.12.78-.27,1.48-.47,2.11-.2.63-.39,1.05-.59,1.29-.47.55-1.38,1.19-2.72,1.93-1.35.74-2.84,1.55-4.48,2.43s-3.28,1.79-4.92,2.72-2.99,1.87-4.04,2.78c-1.05.92-1.68,1.83-1.88,2.72-.2.9.35,1.72,1.64,2.46,1.33.16,2.94.09,4.83-.21,1.89-.29,3.83-.68,5.8-1.17,1.97-.49,3.88-1,5.71-1.52,1.84-.53,3.34-.95,4.51-1.26l.7.64c-.86,1.13-2.27,2.17-4.22,3.11-1.95.94-4.06,1.71-6.33,2.31-2.27.61-4.47,1-6.62,1.17-2.15.18-3.85.05-5.1-.38Zm14-22.38s-.33.13-.88.5c-.55.37-1.22.86-2.02,1.46-.8.61-1.66,1.27-2.58,1.99-.92.72-1.76,1.4-2.52,2.02-.76.63-1.4,1.16-1.9,1.61-.51.45-.72.67-.64.67.62.12,1.44.03,2.43-.26s2.03-.71,3.11-1.26c1.07-.55,2.1-1.16,3.08-1.85.98-.68,1.75-1.36,2.31-2.02.57-.66.86-1.25.88-1.76.02-.51-.4-.88-1.26-1.11Zm-6.33-2.17c-1.29.94-2.2,1.41-2.72,1.41s-.76-.28-.7-.85c.06-.57.35-1.3.88-2.2.53-.9,1.19-1.78,1.99-2.64.8-.86,1.69-1.58,2.67-2.17.98-.59,1.93-.86,2.87-.82.23,1.17.22,2.03-.03,2.58-.25.55-.64,1.01-1.17,1.38-.53.37-1.14.78-1.85,1.23-.7.45-1.35,1.14-1.93,2.08Z"/>
      <path d="m19.99,137.31c-.35-2.19-.24-4.4.32-6.65.57-2.25,1.31-4.48,2.23-6.71.92-2.23,1.85-4.44,2.78-6.65s1.58-4.37,1.93-6.47c0-.08.17-.31.5-.7.33-.39.7-.81,1.11-1.26.41-.45.78-.88,1.11-1.29.33-.41.52-.65.56-.73.62-1.37,1.26-2.63,1.9-3.78.64-1.15,1.14-2.27,1.49-3.37.35-1.09.51-2.18.47-3.25-.04-1.07-.43-2.24-1.17-3.49-.08-.08-.12-.19-.12-.35s.04-.25.12-.29c1.13-1.44,2.44-2.66,3.93-3.63,1.48-.98,3.07-1.76,4.75-2.34,1.68-.59,3.42-.98,5.21-1.17,1.8-.19,3.57-.23,5.33-.12,1.48,1.25,2.43,2.67,2.84,4.25s.43,3.22.06,4.92c-.37,1.7-1.05,3.41-2.05,5.13-1,1.72-2.14,3.32-3.43,4.8-1.29,1.48-2.65,2.81-4.07,3.98-1.43,1.17-2.76,2.07-4.01,2.7-1.13.55-1.96.91-2.49,1.08s-1.05.28-1.55.32c-.51.04-1.12.08-1.85.12-.72.04-1.83.2-3.31.47-.66.12-1.22.42-1.67.91-.45.49-.82,1.04-1.11,1.64-.29.61-.53,1.23-.7,1.88s-.34,1.16-.5,1.55c-.7,1.72-1.34,3.31-1.9,4.78-.57,1.46-1.11,2.91-1.64,4.34-.53,1.43-1.04,2.9-1.55,4.42-.51,1.52-1.03,3.18-1.58,4.98-.08.19-.21.36-.41.5-.19.14-.4.21-.62.23-.21.02-.41-.02-.59-.12-.18-.1-.28-.3-.32-.62Zm13.24-27.13c1.8.35,3.54.25,5.24-.29,1.7-.55,3.29-1.4,4.78-2.55,1.48-1.15,2.82-2.54,4.01-4.16,1.19-1.62,2.2-3.33,3.02-5.13.82-1.8,1.43-3.6,1.82-5.42.39-1.82.51-3.49.35-5.01-.55-.47-1.2-.71-1.96-.73-.76-.02-1.44.01-2.02.09-2.11.27-3.77.81-4.98,1.61-1.21.8-2.2,1.81-2.96,3.02-.76,1.21-1.42,2.61-1.96,4.19-.55,1.58-1.21,3.29-1.99,5.13-.16.27-.39.75-.7,1.44-.31.68-.64,1.41-1,2.17s-.68,1.49-1,2.2c-.31.7-.53,1.19-.64,1.46v1.99Z"/>
      <path d="m57.67,116.16c1.6-5.16,3.06-9.25,4.37-12.28,1.31-3.03,2.4-5.15,3.28-6.36.88-1.21,1.47-1.6,1.79-1.17.31.43.28,1.52-.09,3.28-.37,1.76-1.15,4.11-2.34,7.06-1.19,2.95-2.86,6.32-5.01,10.11-.31.12-.68.14-1.11.06-.43-.08-.72-.31-.88-.7Zm10.25-28.18c-.08-.19-.12-.55-.12-1.05s.04-.82.12-.94c.9-.31,1.58-.35,2.05-.12s.76.58.88,1.03c.12.45.11.93-.03,1.44-.14.51-.36.89-.67,1.14-.31.25-.67.29-1.08.12s-.79-.71-1.14-1.61Z"/>
      <path d="m64,133.33c-1.21-.43-2.2-1.07-2.96-1.93-.76-.86-1.35-1.79-1.76-2.78s-.66-2-.76-3.02c-.1-1.02-.08-1.91.06-2.7.14-.78.37-1.38.7-1.79.33-.41.71-.52,1.14-.32-.04,3.4.36,5.97,1.2,7.71.84,1.74,1.93,2.83,3.28,3.28,1.35.45,2.87.34,4.57-.32,1.7-.66,3.42-1.69,5.16-3.08,1.74-1.39,3.4-3.05,4.98-4.98s2.92-3.95,4.01-6.04c1.09-2.09,1.88-4.16,2.34-6.21s.45-3.92-.06-5.6c-3.52,2.54-6.25,4.14-8.2,4.8-1.95.66-3.31.69-4.07.09-.76-.6-1.01-1.69-.73-3.25.27-1.56.86-3.28,1.76-5.16.9-1.88,2.03-3.76,3.4-5.65,1.37-1.89,2.77-3.49,4.22-4.78,1.44-1.29,2.84-2.11,4.19-2.46s2.47.06,3.37,1.23c.9,1.21,1.46,2.84,1.7,4.89s.18,4.33-.18,6.83c-.35,2.5-.97,5.12-1.85,7.85-.88,2.73-1.96,5.4-3.25,8s-2.76,5.01-4.42,7.24c-1.66,2.23-3.45,4.08-5.36,5.57-1.91,1.48-3.93,2.49-6.04,3.02s-4.26.38-6.45-.44Zm11.95-29.06c-.04.12-.07.33-.09.64-.02.31-.03.64-.03,1s0,.68.03,1c.02.31.05.53.09.64,1.25.31,2.54.02,3.87-.88,1.33-.9,2.55-2.05,3.66-3.46s2.05-2.89,2.81-4.45c.76-1.56,1.23-2.87,1.41-3.93s-.03-1.65-.62-1.79c-.59-.14-1.66.5-3.22,1.9-.47.43-1.09,1.02-1.88,1.76-.78.74-1.57,1.54-2.37,2.4-.8.86-1.54,1.75-2.23,2.67-.68.92-1.16,1.75-1.44,2.49Z"/>
      <path d="m94.82,116.16c-.08-.04-.07-.5.03-1.38.1-.88.24-1.98.44-3.31.19-1.33.45-2.79.76-4.39.31-1.6.64-3.13,1-4.6s.73-2.75,1.14-3.87.81-1.88,1.2-2.31c.27-.27.55-.28.82-.03.27.25.55.57.82.94.27.37.55.7.82,1,.27.29.57.32.88.09,1.09-1.52,2.29-2.98,3.6-4.37,1.31-1.39,2.76-2.59,4.37-3.6.16-.12.59-.3,1.29-.56.7-.25,1.5-.51,2.4-.76.9-.25,1.83-.47,2.78-.64.96-.18,1.78-.25,2.46-.23.68.02,1.15.2,1.41.53.25.33.13.89-.38,1.67-2.34.04-4.53.72-6.56,2.05-2.03,1.33-3.91,2.97-5.62,4.92-1.72,1.95-3.28,4.07-4.69,6.36s-2.63,4.4-3.66,6.36c-1.04,1.95-1.9,3.57-2.58,4.86-.68,1.29-1.18,1.93-1.49,1.93-.04,0-.22-.09-.53-.26-.31-.18-.55-.3-.7-.38Z"/>
      <path d="m124.94,115.46c-.94-.78-1.46-1.93-1.55-3.46-.1-1.52.12-3.24.64-5.16.53-1.91,1.31-3.92,2.34-6.01,1.03-2.09,2.24-4.08,3.6-5.98,1.37-1.89,2.85-3.59,4.45-5.1,1.6-1.5,3.2-2.62,4.8-3.34,1.6-.72,3.16-.98,4.69-.76,1.52.22,2.91,1.1,4.16,2.67.78.98,1.25,1.96,1.41,2.96.16,1,.14,2.01-.06,3.05-.2,1.04-.51,2.09-.94,3.16-.43,1.07-.85,2.16-1.26,3.25-.41,1.09-.74,2.21-1,3.34-.25,1.13-.3,2.29-.15,3.46.19,1.48.86,2.36,1.99,2.64,1.13.27,2.49.2,4.07-.23,1.58-.43,3.25-1.11,5.01-2.05s3.39-1.88,4.89-2.81c1.5-.94,3.25-2.11,5.24-3.52,1.09-.23,1.71-.17,1.85.21.14.37-.08.92-.64,1.64-.57.72-1.42,1.54-2.55,2.46-1.13.92-2.42,1.81-3.87,2.67-1.45.86-2.99,1.64-4.63,2.34s-3.24,1.18-4.8,1.44c-1.56.25-3.04.23-4.42-.06-1.39-.29-2.53-.99-3.43-2.08-.43-.47-.75-.94-.97-1.41-.22-.47-.56-.88-1.03-1.23-.59.55-1.29,1.26-2.11,2.14s-1.71,1.76-2.67,2.64c-.96.88-1.97,1.71-3.05,2.49-1.07.78-2.18,1.37-3.31,1.76-1.13.39-2.28.53-3.43.41-1.15-.12-2.26-.62-3.31-1.52Zm.64-1.99c.35,1.25,1.13,1.83,2.34,1.73,1.21-.1,2.62-.69,4.22-1.79,1.6-1.09,3.26-2.59,4.98-4.48,1.72-1.89,3.26-4,4.63-6.33,1.37-2.32,2.41-4.78,3.13-7.35.72-2.58.91-5.12.56-7.62-.94-.74-2.11-.77-3.52-.09-1.41.68-2.9,1.8-4.48,3.34-1.58,1.54-3.15,3.38-4.69,5.51-1.54,2.13-2.9,4.28-4.07,6.45s-2.06,4.21-2.67,6.12c-.61,1.91-.75,3.42-.44,4.51Z"/>
      <path d="m157.46,137.31c-.35-2.19-.24-4.4.32-6.65.57-2.25,1.31-4.48,2.23-6.71.92-2.23,1.85-4.44,2.78-6.65s1.58-4.37,1.93-6.47c0-.08.17-.31.5-.7.33-.39.7-.81,1.11-1.26.41-.45.78-.88,1.11-1.29.33-.41.52-.65.56-.73.62-1.37,1.26-2.63,1.9-3.78.64-1.15,1.14-2.27,1.49-3.37.35-1.09.51-2.18.47-3.25-.04-1.07-.43-2.24-1.17-3.49-.08-.08-.12-.19-.12-.35s.04-.25.12-.29c1.13-1.44,2.44-2.66,3.93-3.63,1.48-.98,3.07-1.76,4.75-2.34,1.68-.59,3.42-.98,5.21-1.17,1.8-.19,3.57-.23,5.33-.12,1.48,1.25,2.43,2.67,2.84,4.25s.43,3.22.06,4.92c-.37,1.7-1.05,3.41-2.05,5.13-1,1.72-2.14,3.32-3.43,4.8-1.29,1.48-2.65,2.81-4.07,3.98-1.43,1.17-2.76,2.07-4.01,2.7-1.13.55-1.96.91-2.49,1.08s-1.05.28-1.55.32c-.51.04-1.12.08-1.85.12-.72.04-1.83.2-3.31.47-.66.12-1.22.42-1.67.91-.45.49-.82,1.04-1.11,1.64-.29.61-.53,1.23-.7,1.88s-.34,1.16-.5,1.55c-.7,1.72-1.34,3.31-1.9,4.78-.57,1.46-1.11,2.91-1.64,4.34-.53,1.43-1.04,2.9-1.55,4.42-.51,1.52-1.03,3.18-1.58,4.98-.08.19-.21.36-.41.5-.19.14-.4.21-.62.23-.21.02-.41-.02-.59-.12-.18-.1-.28-.3-.32-.62Zm13.24-27.13c1.8.35,3.54.25,5.24-.29,1.7-.55,3.29-1.4,4.78-2.55,1.48-1.15,2.82-2.54,4.01-4.16,1.19-1.62,2.2-3.33,3.02-5.13.82-1.8,1.43-3.6,1.82-5.42.39-1.82.51-3.49.35-5.01-.55-.47-1.2-.71-1.96-.73-.76-.02-1.44.01-2.02.09-2.11.27-3.77.81-4.98,1.61-1.21.8-2.2,1.81-2.96,3.02-.76,1.21-1.42,2.61-1.96,4.19-.55,1.58-1.21,3.29-1.99,5.13-.16.27-.39.75-.7,1.44-.31.68-.64,1.41-1,2.17s-.68,1.49-1,2.2c-.31.7-.53,1.19-.64,1.46v1.99Z"/>
      <path d="m195.13,115.46c-.04-.08-.06-.19-.06-.32s.02-.24.06-.32c.16-.31.42-.85.79-1.61.37-.76.76-1.56,1.17-2.4.41-.84.81-1.63,1.2-2.37.39-.74.66-1.27.82-1.58.08-.12.28-.45.62-1,.33-.55.74-1.22,1.23-2.02.49-.8,1.02-1.69,1.58-2.67.57-.98,1.13-1.93,1.7-2.87.57-.94,1.09-1.82,1.58-2.64.49-.82.89-1.5,1.2-2.05.78-1.29,1.69-2.81,2.72-4.57,1.03-1.76,2.1-3.53,3.19-5.33,1.09-1.8,2.18-3.53,3.25-5.21,1.07-1.68,2.06-3.07,2.96-4.16.9-1.09,1.66-1.82,2.28-2.17s1.05-.12,1.29.7v1.88c-.27.43-.64.99-1.11,1.67-.47.68-.95,1.41-1.44,2.17-.49.76-.97,1.49-1.44,2.2s-.82,1.25-1.05,1.64c-.35.55-.92,1.43-1.7,2.64-.78,1.21-1.66,2.58-2.64,4.1-.98,1.52-1.97,3.12-2.99,4.78-1.02,1.66-1.93,3.21-2.75,4.66-.82,1.45-1.48,2.69-1.96,3.72-.49,1.04-.67,1.69-.56,1.96.94-.27,1.94-.77,3.02-1.49,1.07-.72,2.16-1.49,3.25-2.31,1.09-.82,2.19-1.61,3.28-2.37,1.09-.76,2.11-1.36,3.05-1.79.94.12,1.76.47,2.46,1.05s1.21,1.33,1.52,2.23c-.04.35-.07,1.01-.09,1.96-.02.96-.03,1.96-.03,3.02s0,2.05.03,2.99.05,1.58.09,1.93c.04.43.23.97.59,1.61s.73,1.29,1.14,1.93.78,1.2,1.11,1.67.48.72.44.76c-.78.27-1.52.28-2.23.03-.7-.25-1.32-.66-1.85-1.23-.53-.57-.96-1.21-1.29-1.93-.33-.72-.54-1.44-.62-2.14-.04-.35-.1-1.01-.18-1.96-.08-.96-.15-1.96-.21-3.02s-.12-2.05-.18-2.99-.09-1.58-.09-1.93l-1.35-.7c-.23-.12-.64-.02-1.2.29-.57.31-1.22.74-1.96,1.29-.74.55-1.52,1.17-2.34,1.88s-1.59,1.37-2.31,1.99c-.72.63-1.34,1.17-1.85,1.64-.51.47-.82.76-.94.88-.31.31-.88.87-1.7,1.67-.82.8-1.69,1.66-2.61,2.58s-1.78,1.79-2.58,2.61c-.8.82-1.36,1.41-1.67,1.76-.55.12-1.06.17-1.55.15-.49-.02-.87-.3-1.14-.85Z"/>
      <path d="m231.93,116.16c-1.17-.39-2.06-.99-2.67-1.79-.61-.8-1.01-1.69-1.2-2.67-.2-.98-.22-2-.09-3.08.14-1.07.36-2.1.67-3.08,1.17-1.25,2.49-2.69,3.96-4.31,1.46-1.62,3.02-3.21,4.66-4.78,1.64-1.56,3.35-3.02,5.13-4.37s3.58-2.37,5.42-3.08c.62-.27,1.12-.26,1.49.03s.63.75.79,1.38c.16.63.22,1.35.21,2.17s-.09,1.62-.21,2.4c-.12.78-.27,1.48-.47,2.11-.2.63-.39,1.05-.59,1.29-.47.55-1.38,1.19-2.72,1.93-1.35.74-2.84,1.55-4.48,2.43s-3.28,1.79-4.92,2.72-2.99,1.87-4.04,2.78c-1.05.92-1.68,1.83-1.88,2.72-.2.9.35,1.72,1.64,2.46,1.33.16,2.94.09,4.83-.21s3.83-.68,5.8-1.17c1.97-.49,3.88-1,5.71-1.52s3.34-.95,4.51-1.26l.7.64c-.86,1.13-2.27,2.17-4.22,3.11s-4.06,1.71-6.33,2.31c-2.27.61-4.47,1-6.62,1.17s-3.85.05-5.1-.38Zm14-22.38s-.33.13-.88.5c-.55.37-1.22.86-2.02,1.46-.8.61-1.66,1.27-2.58,1.99-.92.72-1.76,1.4-2.52,2.02-.76.63-1.4,1.16-1.9,1.61-.51.45-.72.67-.64.67.62.12,1.44.03,2.43-.26s2.03-.71,3.11-1.26c1.07-.55,2.1-1.16,3.08-1.85.98-.68,1.75-1.36,2.31-2.02.57-.66.86-1.25.88-1.76.02-.51-.4-.88-1.26-1.11Z"/>
      <path d="m254.13,116.16c-.47-.31-.48-.73-.03-1.26s1.17-1.09,2.17-1.7c1-.6,2.16-1.24,3.49-1.9,1.33-.66,2.61-1.29,3.84-1.88s2.31-1.1,3.25-1.55c.94-.45,1.54-.79,1.82-1.03,1.29-1.09,1.96-2,2.02-2.72.06-.72-.26-1.31-.97-1.76-.7-.45-1.69-.8-2.96-1.05-1.27-.25-2.58-.49-3.93-.7-1.35-.21-2.64-.44-3.87-.67s-2.16-.55-2.78-.94c-.62-.39-.83-.91-.62-1.55s1.06-1.47,2.55-2.49c.55-.39,1.35-.96,2.4-1.7,1.05-.74,2.2-1.5,3.43-2.29,1.23-.78,2.45-1.48,3.66-2.11,1.21-.62,2.23-1.03,3.05-1.23.43-.08.87-.04,1.32.12.45.16.81.38,1.08.67s.4.62.38.97-.28.66-.79.94c-2.23,1.25-4.37,2.42-6.42,3.52-2.05,1.09-4.11,2.34-6.18,3.75-.12.31-.09.59.09.82s.38.41.62.53c4.14.43,7.26,1.04,9.35,1.82,2.09.78,3.42,1.64,3.98,2.58s.5,1.93-.21,2.99-1.75,2.09-3.13,3.11c-1.39,1.02-2.98,1.97-4.78,2.87-1.8.9-3.53,1.66-5.19,2.29-1.66.63-3.12,1.09-4.37,1.41-1.25.31-2.01.37-2.29.18Z"/>
    </g>
  </g>
</svg>