<?xml version="1.0" encoding="UTF-8"?>
<svg id="Layer_2" data-name="Layer 2" xmlns="http://www.w3.org/2000/svg" viewBox="0 0 374.69 163.37">
  <defs>
    <style>
      .cls-1 {
        fill: #5a3d2a;
      }

      .cls-2 {
        opacity: .18;
      }
    </style>
  </defs>
  <g id="Logo">
    <g id="Ligne_Ecriture" class="cls-2">
      <g>
        <path class="cls-1" d="m374.69,70.16c0-.38-.53-.66-.99,0l.35,1.09.64-1.08Z"/>
        <path class="cls-1" d="m369.73,72.74c-.29,1-.43,2.35.64,2.56-.04-1.32.4-1.21.26-2.71.46-.65,1.18-.77,1.35-.43,0-.38,1-.74.83-1.48-1.26.22-2.17,1.14-2.65,2.55-.36.06-.35-.33-.44-.5Z"/>
        <path class="cls-1" d="m309.32,119.33l.48-.17c-.15.02-.31.08-.48.17Z"/>
        <path class="cls-1" d="m267.74,141.65c.32-.17.41-.32.39-.41-.27.2-.5.37-.39.41Z"/>
        <path class="cls-1" d="m259.96,143.9c.17-.04.31-.08.46-.12-.2-.01-.39,0-.46.12Z"/>
        <path class="cls-1" d="m309.32,119.33l-1.23.41c.1.32.68-.14,1.23-.41Z"/>
        <path class="cls-1" d="m363.93,81.95c.16-.22.25-.44.32-.67-.13.18-.26.36-.4.53.03.05.05.09.08.14Z"/>
        <path class="cls-1" d="m326.11,107l.31-.22c.03-.16.03-.33.02-.51l-.33.74Z"/>
        <path class="cls-1" d="m338.79,97.32c-.31.19.12.94.23,1.31-.05-.4.05-.7.26-.94-.09-.13-.25-.25-.5-.37Z"/>
        <path class="cls-1" d="m358.96,81.96l.25-.39c-.06.11-.18.27-.25.39Z"/>
        <path class="cls-1" d="m316.62,113.36c-.09-.09-.2-.15-.29-.17.06.09.16.14.29.17Z"/>
        <path class="cls-1" d="m18.18,63.67c-.02-.06-.06-.08-.09-.12-.03.12-.01.19.09.12Z"/>
        <path class="cls-1" d="m.77,71.38l.18-.19c-.07-.14-.15-.29-.24-.41l.06.6Z"/>
        <path class="cls-1" d="m245.97,148.13s.04,0,.07,0c.33-.22.13-.13-.07,0Z"/>
        <path class="cls-1" d="m170.43,86.8c-.81,1.51-.88-2.53-1.8-.25.34-.2,1.24,2.15,1.8.25Z"/>
        <path class="cls-1" d="m363.55,82.16c-.15.16-.3.32-.47.47.24-.19.38-.33.47-.47Z"/>
        <path class="cls-1" d="m168.64,86.55h0s-.09.24-.09.24c.04-.1.06-.15.09-.24Z"/>
        <path class="cls-1" d="m213.83,155.62c.07.14.21.25.35.35-.02-.09-.1-.19-.35-.35Z"/>
        <path class="cls-1" d="m238.34,152.35l-.63.06c.26,0,.46-.02.63-.06Z"/>
        <path class="cls-1" d="m201.22,156.29c-.31-.12-.4-.26-.86-.22.03.05.07.09.12.12.18-.08.4-.1.74.1Z"/>
        <path class="cls-1" d="m188.93,152.37c.03.09.09.17.13.26.12.05.26.1.38.15l-.51-.41Z"/>
        <path class="cls-1" d="m52.29,39.96c-.38-.04-.68-.16-.94-.31.5.4-1.09,1.64.94.31Z"/>
        <path class="cls-1" d="m363.59,81.61c.09.21.08.37-.04.55.11-.12.21-.24.3-.35-.06-.12-.13-.21-.26-.19Z"/>
        <path class="cls-1" d="m199.6,162.76c-.77-.19-1.54-.33-2.31-.56.63.24,1.47.41,2.31.56Z"/>
        <path class="cls-1" d="m140.84,8.75h-.46c.16.05.32.06.46,0Z"/>
        <path class="cls-1" d="m190.43,160.32c-.3-.44-.66-.76-1.05-1.04-.12.02-.24.03-.34.1l1.39.94Z"/>
        <path class="cls-1" d="m51.35,39.65s0,0,0,0c0,0,0,0,0,0Z"/>
        <path class="cls-1" d="m40.45,49.12c1.73-1.12.21-1.44.22-2.21,1.89-1.63,1.4.05,2.42.06,1.12-1.1,1.55-2.6,2.54-3.18.17.11.4.04.3.37.9-1.62,4.03-2.68,5.05-4.61.17,0,.28.05.36.1-.56-.31-.9-.76-1.06-1.13.78-.51,1.09-1.51,1.77-1.08-.49.28-.38.56-.49.89l.66-.78c1.29.42-.94,1.01-.53,1.66,1.43-1.29,2.84-3.22,4.25-3.71.79.7-2.72,2.07-.59,1.82l-2.11.86c2.3.45-1.22.63,1.03,1.25,2.65-1.32,2.54-2.17,5.2-3.45.27-.83-.62-.6-.35-1.43,3.07-3.05,4.14.52,6.1-2.21.35-.98-.04-2.28,2.21-2.76l-.08,1.37c2.54-1.3.61-2.24,3.59-3.03-.24.66-1.77,1.44-1.33,1.34,2.13-.15.87-1.25,2.18-1.97l.76.75c1.3-.79,2.59-1.74,3.93-2.72,1.34-.97,2.73-1.93,4.18-2.78-.03.36-.4.9.44.82,1.76-1.21,3.82-2.13,5.9-2.97,2.1-.78,4.23-1.44,6.21-1.97l1.07-1.42c.34-.13.77.1.48.41,1.58-.31-.14-.55.42-1.16.81-.41,1.29,0,.87.47,1.13-.91,2.84-1.97,4.64-2.9,1.81-.89,3.74-1.53,5.27-1.58l-.45.44c2.26-.38,1.89-2.51,4.16-2.38l-.34.27c2.43-.52,4.9-1.34,7.29-1.84.6-.13,1.19-.26,1.76-.37.58-.09,1.15-.15,1.71-.19,1.11-.06,2.16-.1,3.12.13.26-.67,1.47-.68,2.62-.74,1.15-.05,2.23-.06,2.34-.97,1.41.34,1.91.61,2.53.89.62.29,1.4.44,3.24.84.97.16,1.56-1,2.84-1.06l-.08.92,1.8-.69.68,1.23c.4-.04.77,0,1.15.02-.42-.17-.85-.64-.73-.88.93,0,1.97.45,2.74.92.76.52,1.21,1.13,1.16,1.35,1.4.15,2.71.56,4.09.92-.26.29-.94.11-1.53.09,1.18.05,1.18.31,1.12.56-.05.26-.12.48.91.64-.12-.32.4-.4.54-.53.59.98,2.42,2.2,3.78,3.19l-.67.27c.54.49,1.04,1.07,1.61,1.58.51.58,1.1,1.11,1.61,1.75,1.08,1.21,2.07,2.6,2.87,4.13-.31-1.24.77-1.55,1.36-.65l-.68.82c.85.33-.18-1.15,1.13-.24.49,1.28-.61,1.28-1.22.75.35.42.65.87.98,1.31-.23.2-.52-.08-.9-.01.41.17.48.89.55,1.64.1.74.23,1.48.87,1.77l-.25.18c1.09,3.35,1.76,4.9,2.38,7.81.84-.1.88,1.09,1.68,1.89.08,2.26-.29,4.8-.01,7.5.56,1.87.75.5,1.31,1.33-.75.19-.53,2.91-1.15,1.53.28,3.27.35,4.17,1.02,8.35.31-.46.45-.97.71-.71.13.76-.31,1.74-.68,1.63l-.08-.2c1.18,4.73-2.39,10.83-.93,14.65l-.07-.21.69,3.95c-.2,1.8-.53-1.11-1.06.21,1.12,4.28-.45,6.69.27,10.23-2.37,2.64-.14,9.65-1.58,13.35l.53-.21c.52.96-.31,1.16-.43,1.87.41-.1.48-1.04.77-.45.67,8.08-.41,16.82.8,25.51.23,1.58,1.04,1.88,1.68,2.29.65.42,1.2.93,1.1,3.02l-1.25-.84c1.4,2.97,2.45,6.09,3.83,9.15,1.37,3.04,3.11,6.03,5.57,8.25-.43-.15-.67.02-1.05-.5.11.79.97,1.79,1.82,2.54.9.72,1.78,1.17,1.99.97.69.75-.2.54.06,1.2.75,1.33,3.27,1.6,3.43,2.6.03.17-.46-.04-.7-.16.46.16,1.33.77,2.04,1.23.72.44,1.31.66,1.15.09,1.88,1.68,4.25,1.95,5.82,3.15,1.49-.36,3.76,1.86,4.54.69-.28.62.66,1.18,1.88,1.53,1.23.32,2.72.4,3.51.2-.57.32,1.22.65.55,1.1,1.72.25,3.32.17,3.09-.56.73.47,1.51.67,2.28.72.77.03,1.52-.08,2.22-.18,1.4-.24,2.61-.42,3.49.59,5.02-.8,9.47-1.81,13.75-2.84.07,1.39-4.79.86-4.43,2.22,4.15-1.09,6.28-2.67,10.37-3.2,1.08-.04-.47.7-.77,1,3.95-1.41,7.87-1.75,11.2-3.51.03.12-.32.37-.65.58.68-.25,1.68-.29,1.42-.86l-.63.36c-1.35-.52,2.2-2.61,2.17-3.11-.63,2.06,3.56-.69,2.41,2.03.42-.26.89-.73.66-1.08.71-.11,1,.04.47.72,2.35-1.14,1.26-1.47,3.47-2.24.09.28-.31.55-.43.96.93-.94,1.84-1.9,3.78-2.35-.05.21.25.35-.3.55,3.15-1.3,4.82-3.51,8.44-4.44-.5,1.62,1.33-.09,1.95.85l1.7-1.1-.95-.18c1.62-.68,2.68-2.06,4.2-2.35l-.99.96,2.89-1.56-1.86.39c1.36-1.26-.76-1.21,1.47-1.9-.37.31,1.58-.73,2.68-.52h0c.63-.68,1.25-1.41,2.53-1.73.46.17.3,1.23.6,1.35.35-1.21,3.55-2.05,4.05-3.43-.21.37.04.9.2.96l.29-1c.83-.15.99-.1,1.09.37,2.22-.99-1.34-.9,1.5-1.69-.17.16-.02.21-.39.53,2.71-1.07,4.71-3.04,7.21-4,1.23.61-1.9,1.37-.66,1.76,3.28-2.02,6.27-5.06,9.59-6.71l-.66.24c-.36-1.63,2.78-.72,4-2.34-.33.34-.06,1.07-.05.85,2.31-1.09,4.24-3.03,7.22-5.51l-.18.6c1.46-.49,3.44-1.94,4.89-2.67.18-.6.99-1.06.19-1.25,5.46-.79,7.19-6.3,11.9-7.25-.43.31-.83,1.02-.48.78l2.86-2.49c-.65-.39-.65-.05-1.6-.04.15-.61.83-1.48,1.58-2.03-1.1,1.36.66.9,1.48.78-.22-.1-.16-.44-.34-.58,2.32-.16-.55-1.31,2.1-2.23l.1.38c.7-.74,1.15-1.68,2.08-2.24.84.37-.63.94-.29,1.51,1.2-.95,1.49-3.01,3.06-3.21-.38.57-1.11,1.13-1.5,1.7,1.76-.15,1.76-.45,2.74-1.01l-.1.05,2.31-1.24-.68.2c.22-2.81,2.83-2.69,3.97-5.36-1.13,2.57.15.84.57,1.67.67-.21,1.63-.62,1.57-.25.48-1.34,1.95-.84,2.59-2.77.25.18,1.02-.81,1.28-.07,1.07-1.2-.61-.15-.75-.52,1.22-2.32,5.17-2.79,6.88-6.17,1.87-2.44,1.61-3.55,3.31-5.8,1.01-.3.16,1.31.16,1.31,1.41-.72,2.19-1.57,2.99-2.8-.03.38.33.34.88.27.78-.86-.18-1.3,1.2-2.05.04.42.17,1.02,0,1.65.79-1.14,1.37-2.47,2.17-3.65.62.1-.05,1.15-.17,1.73.97-1.28,2.57-3.24,2.34-4.15l-.92.52c.38-.44.7.27.51.68-.5,1.41-1.58,1.19-1.84,1.04l.57-.84c-1.94-.49-2.64,3.03-4.17,4.36l-.27-1.48-.77,2.18c-.54.07-1.24-.23-.65-1.05-1.47.54-.61,1.2-1.99,1.55-.17.01-.17-.07-.11-.19l-.77,1.23c.02-.38-.77-.49-.02-.94-2.32,1.18-2.35,3.44-3.69,3.37l.1-.2c-2.31,2.65.37.91-.88,3.46l-2.82-.53.34.91c-.29.21-.88.63-1.02.26-.6,1.35.43.15.23,1.11-1.85.5-3.4,3.4-4.64,2.52-.03.93,1.62-.65.5.91-1.4-.87-1.48,1.57-3.17,2.01-.13-.94,1.3-1.55-.38-1.11.12,1.66-2.59,1.69-3.47,2.72.63.9-2,2.15-3.56,3.79-.11-.37-3.72,2.07-5.64,2.97l-.06-.18c.33,1.13-1.53,2.23-2.67,3.33-.33-.57-.26-.95.25-1.68l-1.19.86c-.08.49-.34.91-1.05,1.56l-.18-.89c-1.56,1.17-2.66,3.07-5.05,4.04.32.72,2.87.62.95,2.56-.32-.29-.8-.82-.32-1.35-.16.17-.48.75-.96.86l.49-1.18c-1.12.4-.17.82-.96,1.28-.32-.5-.8.03-.95-.43.16-.18.8-.25.96-.64-.92.49-2.15.9-2.74.76.26.23.45.66-.14,1.15-1.6,1.12-.95-.22-2.07.16-.16.61-1.44.93-.98,1.69-.48.31-.8.02-1.11-.06-.63.89-3.91,2.66-2.44,2.83l.25-.09s-.08.07-.12.12h0s0,0,0,0c-2.33,2.54-6.1,3.26-8.72,5.29l-.15-.26c-1.51,1.31-3.65,2.42-4.55,3.68-.5.3-1.46.23-1.42-.2-1.19.94-1.17,1.32-3.3,1.97,1.06-1.19-.68-.14,1.16-1.09-1.82.74-2.44.55-3.87,2.27.25-1.01-1.75-.13-2.45.52l1.46-.18c-.86.6-1.69.98-2.54,1.36l-.04-1.11c-4.05.82-5.38,5.2-9.02,4.76-.63,1.1,2.15-.53,1.68.62-1.7.71-4.04.28-4.56.52-2.48.6-1.46,2.33-4,3.13.45.17,1.15.91-.5,2.04-1.73.66-2.67-.41-1.74-1.15.39-.21.63-.2.66-.08.48-.37,1.12-.83.3-.88l-.07.42c-.97.06-3.25,1.13-2.95.35-1.12.87-.3.77.71.52-2.35.49-3.35,1.48-5.7,2.11.43.03.92.27.57.42-3.44.96-1.17,1.24-3.34,2.29-1.47,0-.03-1.38-2.1-.06-1.51.2-.63-.76-.2-1.25-1.78,1.45-3.97,1.07-5.18,1.37l.97-.67c-.58.4-1.11.59-1.65.79l.86.44c-.68.12-1.21.32-1.3.03-.5.67.91.93-.18,2-.97-.04-2.47,1.29-3.08.49,2.79-.62-.6-.79,1.61-1.72-.4.26-.93.45-1.61.55-.13-.07.03-.22.18-.33-2.83.05-.83,1.43-3.51,2.26.18-.61-.92-.77-1.32-.52,1.08-.33.78.68-.09,1.39-1.85.12-1.79.86-2.71,1.08l1.09-.12c-.2.62-1.09.81-2.26,1.31-.22-.37,1.03-.58.54-.64-1.1,1.29-3.3-.09-5.02.99-.96-.14-.32-.95-1.14-1.01-1.95,1.18-2.43-.19-4.52.83.78.58.87.39-.58,1.37,1.2-.39,2.38-.83,3.56-1.25l-2.14,1.52c1.12-.23,2.25-.93,2.94-.98-.99.83-.92.62-.25,1.09-1.75-.72-2.9,1.27-4.83.89l-.27-1.75c-2.75-.32-4.54,1.71-8.05,1.62l1.14.18c-.39.77-2.13.32-3.22.69.06-.6-.65-.76-1.15-1.11.08.44-2.5.09-2.79,1.25-.52-.25-1.04-.49-1.55-.76-1.38-.18-2.17.24-2.97.62-.8.4-1.61.81-2.95.57.86-.57-.29-1.1,1.5-1.39-.88-.09-1.65-.26-1.71.14-.46-.42-2.54.51-3.25-.22-.41.19-.64.79-1.62.55-.08-.14.06-.29.06-.29-.06.29-1.62.04-.9.88-1.17-1.19-2.99-1.66-4.78-2.21-1.77-.57-3.51-1.24-4.17-2.49-1.79-.65-3.81-1.79-5.21-2.81.2-.07.19-.23.4.02-1.48-1.9-2.27.42-3.88-1.97-.3-1.68,1.39.67,1.03-.21.53-.82-.04-1.35-.84-1.94-.76-.62-1.74-1.35-1.8-2.43l.35.28c-.15-.74-.78-1.28-1.49-1.95-.37-.32-.76-.67-1.1-1.09-.34-.41-.7-.84-.92-1.38,0,0,.2.02.27-.13-1.63-.89-3.17-3.57-4.15-5.65.95.42.71.84,1.31.18-.43-.92-1.08.71-1.94-1.17.21-.77.12-2.28.88-2.68.18.6.39,1.2.58,1.8.37-.62.19-1.19-.1-1.74-.27-.56-.65-1.1-.68-1.61h.49c-.81-2.75-1.98-2.56-2.44-5.71l-.3.38c-1.43-1.54.41-1.54-.68-3.14l1.1-.67c-.43-1.09-1.59-3.86-1.94-5.93.95,1.11,1.61,3.47,2.31,4.87-.13-1.12-.47-3.8-1.09-4.35.14.45.49,1,.35,1.46-1.06-1.3-1.64-3.13-1.74-5.41,2.28.3.35-5.97,2.16-7.65-.88-4.02.41-7.98.42-12.69-1.84,1.62,0-1.38-1.85-1.15-.08-1.11-.03-1.53.09-1.62l1.22-3.3c.56-.77.36,1.06.78.98.23-2.41.82-.98,1.36-2.56-.67.3-.91-.88-.6-2.24l-.92,1.91c-.84-3.42,1.66-2.86.82-6.31l.53,1.1c-.27-1.76.25-6.48-1.18-8.25.22-.31.73-.7.84.08.35-4.22-1.38-9.41-.52-12.71l.45.32c-.14-.79-.87-1.37-.43-2.37.19.05.45.31.47-.06-.17-.42-.84-2.09-.63-3.15l.54.88c.42-4.21-1.56-6.34-2.24-9.76,1.33-.13,1.34-3.49,1.26-5.2l.19.03c-.35-2.48-1.05-4.54-1.94-6.48-.89-1.94-1.91-3.77-3.03-5.83.14-1.61-.74-4-2.12-6.43-1.37-2.44-3.27-4.84-4.76-6.88.37.71-.82.63-1.52.13-.67-.99-2.95-1.33-2.08-2.15l.31.26c.02-.72-.5-1.41-1.23-2.02-.76-.57-1.72-1.08-2.51-1.58l-1.03,1.22c-.77-1.02-1.92-1.88-3.23-2.49-1.34-.52-2.77-1.02-4.18-1.2-.7-.12-1.38-.23-2.02-.34-.64-.11-1.26-.15-1.82-.27-1.12-.2-2.03-.58-2.61-1.11-1.16.32-2.55.16-3.66.54l.09-.85c-1.55-.1-2.72-.23-3.97-.2-1.24.07-2.59.11-4.46.44l.7-.7c-2.15.22-2.39,2.74-4.25,3.08l-.77-1.15c-.9.17-1.81.26-2.73.35-.92.08-1.83.22-2.74.35-1.82.25-3.58.76-5.15,1.79,0-.19,0-.58.56-.78-1.68.36-6.58,1.12-5.45,2.57-.41-1.1-3.55,1.11-5.19,2.23v-.88c-1.17,1.56-1.1,1.88-3.1,2.97-.54.1-.69-.45.06-.51-1.83.26-1.01,1.22-3.17,1.66l.54-.81c-1.72.66-1.47.87-2.16,1.84-.93.74-3.27,1.2-3.82.63-.04.52-.69,1.5-1.76,1.75-.25-.2.03-.52.17-.68-3.05.75-3.69,2.85-5.95,3.02-.16-.23-.35-.29-.54-.29,2.2-1.05,3.99-1.87,3.85-1.73-.33-.7-2.17.05-1.21-1.6-1.18,1.23-3.07,3.52-4.93,4.09-.12-.02-.23-.05-.35-.12l.14-.17c-.43.13-.75.38-1.02.67-.6.17-.99.26-1.52.52-.5-.47-2.17.74-3.04,1.19.47.71-.73,1.2.66,1.24-.17.02.12-.18.67-.52.12-.09.26-.19.33-.28,0,.03-.02.06-.02.1.55-.33,1.29-.73,2.13-1.18-.49.73-1.04,1.42-2.21,1.52-.19.72-.41,1.47-.56,1.85-1.73-.4-4.32.26-4.98-.18-2.39,1.87-6,3.74-6.81,6.08-.63.6-1.07.1-1.47.05.34-.38.86-.66.97-.99-1.27,1.2-4.25,2.7-4.02,3.87-2.09.68.5-1.49-1.92.18l.16-.49c-5.89,1.51-6.48,7.34-13.07,8.9.45-.12.67-.19.85-.08-6.67,3.16-11.97,9.11-18.76,11.93-1.85.92-1.63,1.63-2.33,2.79l-.89-.48-1.13,2.09c-2.01,2.37-5.55,1.27-7.8,4.68l.76.2c-1.18.72-3.29,2.88-3.52,2.17-.05.17.02.78-.61.84l-.32-.36-2.23,2.66c-2.3,1.3-.8-1.75-3.91.47-1.03,1-2.4,3.53-1.78,3.46.47-.33,1.35-.64,1.67-.29l-.89.98c.65,1.26.73,2.99,3.85,1.86l1.25-2.01.98.11-1.46,1.15c1.23-.12,1.42-.98,1.79-1.74.36.18.76.2,1.19.04l.94-2.37c.54.28-.14,1.45,1.21.83.45-1.1-1.51-.4-.4-1.73,1.23-.12,1.29.48,1.96-.69.35.19.28.53-.02.95.63-1,2.24-1.88,2.26-2.82,1.35-.02,2.9-2.36,3.59-1.22.09-.46.96-1.98,1.75-2.62-.58,2.36,3.14-2.14,3.73-.47.29-1.95,3.66-3.39,5.2-5.41-.05.17-.13.51-.35.57,1.19-.68,1.76-.56,2.63-.84-.53-1.06,1.06-2.51,1.6-3.75,2.03,0-.06,1.71.99,2.31-.61-.74,1.86-2.42.95-2.75,1.45-.14,1.1-.34,2.2.1-.64-1.34.84-.88,1.22-2.22,1.94-.43,1.16.88,2.61-.62,1.05-.16-.16,1.27-.16,1.27Zm40.11-26.85s0,.01,0,.01c-.36.21-.67.38-.86.5.18-.11.43-.25.86-.51Zm3.62-1.81c-.46.19-1.01.45-1.59.74-.26-.2-.25-.53.12-.7-.11.27.82,0,1.47-.04Zm-10.38-1.3c.52-.41.8-.36.96-.25-.27.16-.58.34-.97.62,0,.04-.02.09-.02.13-.02-.17-.03-.34.03-.5Z"/>
        <path class="cls-1" d="m73.3,20.69c-.07.06-.1.12-.21.18.15,0,.29,0,.43-.02.03-.12.05-.24.08-.34-.1.06-.21.12-.3.18Z"/>
        <path class="cls-1" d="m309.88,119.14l-.08.03c.08-.01.15-.02.22,0-.07,0-.08-.03-.13-.03Z"/>
        <path class="cls-1" d="m136.72,8.4l.02-.21c-.11.04-.23.09-.34.15.11.01.22.04.32.07Z"/>
        <path class="cls-1" d="m330.12,108.85c.08.03.19.05.37,0-.04-.04-.19-.02-.37,0Z"/>
        <path class="cls-1" d="m338.07,103.17l1.28-.61c-.58.23-.97.43-1.28.61Z"/>
        <path class="cls-1" d="m344.25,98.86c-.02-.17-.07-.28-.11-.37h-.01s.13.37.13.37Z"/>
        <path class="cls-1" d="m240.41,157.62c-.1.03-.19.07-.27.12-.62.35-.18.16.27-.12Z"/>
        <path class="cls-1" d="m272.94,142.75c-.27.3-.55.6-.86.85.6-.21,1.05-.41.86-.85Z"/>
        <path class="cls-1" d="m199.85,162.82s0,0,0-.01c-.09-.02-.17-.03-.26-.05l.25.06Z"/>
        <path class="cls-1" d="m270.58,144.29c.65-.11,1.11-.37,1.5-.69-.49.17-1.08.36-1.5.69Z"/>
        <path class="cls-1" d="m368.77,77.27l.28-.23s-.06-.08-.07-.13l-.21.36Z"/>
        <path class="cls-1" d="m368.98,76.91l.21-.36c-.13.13-.24.25-.21.36Z"/>
        <path class="cls-1" d="m369.63,75.8l-.44.75c.21-.21.48-.45.44-.75Z"/>
        <path class="cls-1" d="m361.36,83.97l.13.3c0-.09-.04-.19-.13-.3Z"/>
        <path class="cls-1" d="m359.2,86.11c.58-.44,1.77-.76,2.38-1.59l-.1-.24c-.04.66-2.13.99-2.28,1.83Z"/>
        <path class="cls-1" d="m347.27,91.59l2.07-1.44c-.55.04-1.27.08-.45-.72-3.03,1.31.97.13-1.62,2.16Z"/>
        <path class="cls-1" d="m340.96,96.15c.96-.96-.31-.36-.37-.55-.48.76-.6.95.37.55Z"/>
        <path class="cls-1" d="m294.54,127.7l-.27-.73c-.84.61.14.26.27.73Z"/>
        <polygon class="cls-1" points="287.05 136.43 288.17 136.36 288.27 135.51 287.05 136.43"/>
        <polygon class="cls-1" points="278.87 134.56 279.22 134.26 277.82 135.3 278.87 134.56"/>
        <path class="cls-1" d="m191.28,152.68l-.11.99c.69.09,1.2-.82.11-.99Z"/>
        <path class="cls-1" d="m170.38,122.71c.4-.51.51-1.65-.03-2.27.04.9-.15,1.83.03,2.27Z"/>
        <polygon class="cls-1" points="149.18 4.11 150.15 4.23 148.46 3.71 149.18 4.11"/>
      </g>
    </g>
  </g>
</svg>