<?xml version="1.0" encoding="UTF-8"?>
<svg id="Layer_2" data-name="Layer 2" xmlns="http://www.w3.org/2000/svg" viewBox="0 0 55.95 40.46">
  <defs>
    <style>
      .cls-1 {
        fill: #c1272d;
      }
    </style>
  </defs>
  <g id="Logo">
    <g id="Symbole_X">
      <path class="cls-1" d="m12.75,2.63c8.91,10.85,15.68,23.4,19.89,36.78.58,1.84,3.48,1.05,2.89-.8C31.16,24.71,24.13,11.77,14.87.51c-1.23-1.49-3.34.64-2.12,2.12h0Z"/>
      <path class="cls-1" d="m54.15,1.33c-14.65,5.82-28.79,12.88-42.19,21.18-3.82,2.37-7.59,4.84-11.29,7.39-1.58,1.09-.08,3.69,1.51,2.59C14.98,23.65,28.54,15.92,42.69,9.45c4.04-1.85,8.13-3.59,12.26-5.23,1.77-.7,1-3.61-.8-2.89h0Z"/>
    </g>
  </g>
</svg>